<svg width="25" height="13" viewBox="0 0 25 13" fill="none" xmlns="http://www.w3.org/2000/svg">
<path fill-rule="evenodd" clip-rule="evenodd" d="M17.6774 0.804835C17.4976 0.849779 17.3679 0.913102 17.1733 1.05076C16.8207 1.30033 16.8538 1.23924 15.5713 4.004C14.9379 5.3695 14.4136 6.49077 14.4061 6.49583C14.3986 6.50089 14.0359 5.73358 13.6 4.79066C12.8043 3.06949 12.7046 2.86829 12.5676 2.70809C11.9313 1.96332 10.6948 2.04539 10.191 2.86576C10.1442 2.9421 9.67088 3.9444 9.13929 5.09314L8.17283 7.18167L7.49991 5.72889C6.71918 4.04359 6.6215 3.88487 6.2448 3.69074L6.15634 3.64513V2.93295C6.15634 2.30724 6.15179 2.21892 6.11875 2.20523C6.09803 2.19659 5.94823 2.1896 5.78583 2.1896H5.49051V2.845V3.50047H5.38731C4.98645 3.50047 4.46106 3.83308 4.22369 4.23728C4.14624 4.36921 0.187744 12.9238 0.187744 12.9593C0.187744 12.9761 4.33611 12.9848 12.3984 12.9848C20.5077 12.9848 24.6091 12.9762 24.6091 12.9591C24.6091 12.9158 19.3627 1.58941 19.2849 1.46485C18.9597 0.94413 18.2638 0.658397 17.6774 0.804835Z" fill="#FEFEFE"/>
</svg>
