<svg width="14" height="12" viewBox="0 0 14 12" fill="none" xmlns="http://www.w3.org/2000/svg">
<path d="M10.3667 8.22179L10.3667 8.2218L10.368 8.223L10.6155 8.44575L10.787 8.66295L10.9144 8.89468L10.9604 9.00958L11.0355 9.20983L11.0669 9.31472L11.1028 9.57773L11.1147 9.73199V10.0082L11.0802 10.2608L10.9864 10.5657L10.834 10.8822L10.6619 11.1117L10.4134 11.3602L10.1861 11.5193L9.85664 11.6723L9.61094 11.7393L9.46723 11.7495L9.277 11.7383L9.05623 11.6942L8.81682 11.5916L8.55913 11.4443L8.26247 11.2509L8.2505 11.243L8.23771 11.2367L7.86907 11.0523L7.86908 11.0523L7.86513 11.0504L7.56232 10.9056L7.53569 10.8929L7.50684 10.8867L7.32252 10.8472L7.32259 10.8468L7.30912 10.8447L7.05897 10.8052L7.03182 10.8009L7.00439 10.8026L6.79374 10.8158L6.76893 10.8173L6.74492 10.8237L6.54743 10.8764L6.52663 10.8819L6.50708 10.891L6.3382 10.9689L6.12984 11.0601L6.11516 11.0665L6.10142 11.0747L5.90489 11.1926L5.68462 11.3222L5.45034 11.4524L5.43541 11.4607L5.42175 11.4709L5.33661 11.5348L5.13424 11.6306L4.78413 11.7097L4.42004 11.6983L4.19278 11.6442L3.86441 11.4917L3.58501 11.3055L3.37654 11.097L3.21697 10.8918L3.06544 10.5888L2.95901 10.2577L2.92592 10.037L2.93785 9.67911L2.98692 9.34788L3.07005 8.99158L3.20611 8.71948L3.3735 8.48513L3.4278 8.43988L3.428 8.44013L3.43732 8.43152L4.29309 7.64158L4.30777 7.62804L4.3201 7.61234L4.60975 7.2437L4.6098 7.24373L4.61317 7.23924L4.85015 6.92326L4.86271 6.90652L4.87231 6.88792L5.08296 6.47979L5.08302 6.47982L5.08568 6.47435L5.3061 6.02056L5.46961 5.73127L5.62225 5.49643L5.86396 5.25472L6.24009 4.99613L6.61878 4.85843L6.87823 4.82458H7.16174L7.42295 4.85866L7.6916 4.9521L7.89444 5.04225L8.05962 5.16339L8.19032 5.2822L8.31904 5.41092L8.5116 5.66365L8.68496 5.94845L8.82372 6.21336L8.94006 6.45898L8.93979 6.45911L8.94563 6.47001L9.14311 6.83865L9.1488 6.84926L9.15547 6.85927L9.33979 7.13575L9.33947 7.13597L9.3478 7.14708L9.54529 7.41039L9.55199 7.41933L9.55947 7.42764L9.79645 7.69095L9.80311 7.69835L9.81034 7.7052L10.0605 7.94218L10.0605 7.94221L10.0639 7.94531L10.3667 8.22179Z" stroke="#DAD6D3" stroke-width="0.5"/>
<path d="M9.03312 0.403552C9.32042 0.433943 9.58823 0.629843 9.77819 0.972502C9.96771 1.31435 10.0657 1.78263 10.0116 2.29458C9.95742 2.80653 9.7636 3.24394 9.50675 3.53857C9.2493 3.8339 8.94643 3.96944 8.65913 3.93904C8.37183 3.90865 8.10402 3.71275 7.91405 3.37009C7.72454 3.02825 7.62652 2.55997 7.68067 2.04801C7.73483 1.53606 7.92865 1.09866 8.1855 0.804024C8.44295 0.508694 8.74582 0.373161 9.03312 0.403552Z" stroke="#DAD6D3" stroke-width="0.5"/>
<path d="M6.35532 2.0427C6.40948 2.55465 6.31146 3.02293 6.12194 3.36478C5.93197 3.70744 5.66417 3.90334 5.37687 3.93373C5.08957 3.96412 4.7867 3.82858 4.52925 3.53325C4.2724 3.23862 4.07858 2.80122 4.02442 2.28926C3.97027 1.77731 4.06829 1.30903 4.2578 0.967185C4.44777 0.624526 4.71558 0.428627 5.00288 0.398236C5.29018 0.367845 5.59304 0.503377 5.8505 0.798707C6.10734 1.09334 6.30117 1.53075 6.35532 2.0427Z" stroke="#DAD6D3" stroke-width="0.5"/>
<path d="M11.8654 3.5902C12.1481 3.65317 12.3921 3.87752 12.5422 4.23697C12.692 4.59569 12.7368 5.06857 12.6257 5.56716C12.5147 6.06575 12.2734 6.47492 11.9856 6.73617C11.6971 6.99795 11.381 7.09754 11.0983 7.03458C10.8156 6.97161 10.5716 6.74726 10.4215 6.38781C10.2717 6.0291 10.2269 5.55621 10.338 5.05762C10.449 4.55903 10.6903 4.14986 10.9781 3.88862C11.2666 3.62683 11.5827 3.52724 11.8654 3.5902Z" stroke="#DAD6D3" stroke-width="0.5"/>
<path d="M3.70044 5.05723C3.81149 5.55582 3.76668 6.0287 3.61691 6.38742C3.46683 6.74687 3.22282 6.97122 2.94012 7.03418C2.65742 7.09715 2.34126 6.99756 2.05282 6.73577C1.76497 6.47453 1.52371 6.06536 1.41266 5.56677C1.30161 5.06818 1.34642 4.59529 1.49619 4.23658C1.64627 3.87713 1.89028 3.65278 2.17298 3.58981C2.45568 3.52685 2.77184 3.62644 3.06028 3.88822C3.34813 4.14947 3.58939 4.55864 3.70044 5.05723Z" stroke="#DAD6D3" stroke-width="0.5"/>
</svg>
