<svg width="8" height="14" viewBox="0 0 8 14" fill="none" xmlns="http://www.w3.org/2000/svg">
<g clip-path="url(#clip0_185_19774)">
<path d="M5.32071 13.1425V7.55778H7.19999C7.2943 6.82978 7.38755 6.11509 7.4829 5.37876H5.33486C5.33486 4.79636 5.3291 4.23488 5.33958 3.67276C5.34895 3.55626 5.38477 3.44324 5.44435 3.34243C5.51842 3.2185 5.62523 3.11718 5.75322 3.04917C5.88121 2.98116 6.02549 2.94921 6.17051 2.95675C6.56187 2.93751 6.95638 2.94264 7.34669 2.93796C7.4106 2.93796 7.47504 2.93796 7.54106 2.93796V0.992023C6.84337 0.910319 6.13971 0.891247 5.43859 0.934894C4.90198 0.974012 4.39094 1.17796 3.97636 1.51837C3.69132 1.76337 3.46243 2.06616 3.3051 2.40628C3.14777 2.7464 3.06564 3.11595 3.06424 3.49021C3.03595 4.06221 3.05009 4.6341 3.0459 5.2061C3.0459 5.2607 3.0459 5.31533 3.0459 5.38917H1.16821V7.56693H3.03699V13.1429" fill="#867D77"/>
</g>
<defs>
<clipPath id="clip0_185_19774">
<rect width="7.33472" height="13" fill="white" transform="translate(0.665283 0.5)"/>
</clipPath>
</defs>
</svg>
