<svg width="13" height="12" viewBox="0 0 13 12" fill="none" xmlns="http://www.w3.org/2000/svg">
<path d="M10.5814 9.26146L10.5419 9.12981L10.4629 8.91915L10.4103 8.7875L10.2654 8.52418L10.068 8.27403L9.80464 8.03705L9.50183 7.76057L9.25168 7.52359L9.0147 7.26027L8.81721 6.99696L8.63289 6.72048L8.43541 6.35184L8.31692 6.10169L8.17209 5.82521L7.98777 5.5224L7.77712 5.24592L7.6323 5.10109L7.48747 4.96943L7.28999 4.82461L7.053 4.71929L6.75019 4.61396L6.44738 4.57446H6.1314L5.82859 4.61396L5.39412 4.77195L4.97282 5.0616L4.69634 5.33808L4.52518 5.60139L4.35403 5.9042L4.13021 6.365L3.91956 6.77314L3.68258 7.08912L3.39293 7.45776L2.53716 8.2477L2.45817 8.31353L2.26068 8.59001L2.10269 8.90599L2.01053 9.30096L1.95787 9.65643L1.9447 10.0514L1.9842 10.3147L2.10269 10.6834L2.27385 11.0257L2.45817 11.2627L2.69515 11.4996L3.01113 11.7103L3.37977 11.8814L3.65625 11.9473L4.07755 11.9604L4.48569 11.8683L4.73584 11.7498L4.84116 11.6708L5.07815 11.5391L5.30196 11.4075L5.49945 11.289L5.7101 11.1968L5.88126 11.1178L6.07874 11.0652L6.28939 11.052L6.53954 11.0915L6.72386 11.131L7.02667 11.2758L7.39531 11.4601L7.69813 11.6576L7.97461 11.8156L8.25109 11.9341L8.5144 11.9868L8.73822 11.9999L8.92254 11.9868L9.21218 11.9078L9.58082 11.7366L9.84414 11.5523L10.1206 11.2758L10.3181 11.0125L10.4893 10.657L10.5946 10.3147L10.6341 10.0251V9.72226L10.6209 9.55111L10.5814 9.26146Z" fill="#B5B0AD"/>
<path d="M9.52949 2.32088C9.64729 1.20727 9.10968 0.23754 8.32871 0.154927C7.54773 0.0723141 6.81913 0.908103 6.70133 2.02171C6.58353 3.13533 7.12114 4.10506 7.90212 4.18767C8.68309 4.27028 9.41169 3.43449 9.52949 2.32088Z" fill="#B5B0AD"/>
<path d="M4.67245 4.18223C5.45343 4.09962 5.99104 3.12989 5.87324 2.01627C5.75544 0.902664 5.02684 0.0668758 4.24586 0.149489C3.46489 0.232101 2.92728 1.20183 3.04508 2.31544C3.16288 3.42905 3.89148 4.26484 4.67245 4.18223Z" fill="#B5B0AD"/>
<path d="M12.139 5.62151C12.3809 4.5356 11.9556 3.5169 11.189 3.34618C10.4225 3.17546 9.60507 3.91736 9.36321 5.00327C9.12136 6.08918 9.54668 7.10788 10.3132 7.2786C11.0797 7.44933 11.8972 6.70742 12.139 5.62151Z" fill="#B5B0AD"/>
<path d="M2.26376 7.27809C3.03028 7.10737 3.45561 6.08866 3.21375 5.00276C2.97189 3.91685 2.15444 3.17494 1.38792 3.34566C0.621391 3.51639 0.196064 4.53509 0.437921 5.621C0.679778 6.70691 1.49723 7.44881 2.26376 7.27809Z" fill="#B5B0AD"/>
</svg>
