<svg width="14" height="14" viewBox="0 0 14 14" fill="none" xmlns="http://www.w3.org/2000/svg">
<g clip-path="url(#clip0_185_19770)">
<path d="M0.179443 9.89711V4.40033C0.187084 4.32396 0.194174 4.24738 0.20236 4.17155C0.242586 3.78992 0.347002 3.41785 0.511253 3.0705C0.858188 2.32106 1.45602 1.71415 2.20303 1.35293C2.5733 1.16945 2.97397 1.05381 3.38565 1.012L3.62414 0.989258H9.14701C9.16066 0.992325 9.17452 0.994609 9.18849 0.99587C9.43511 1.00807 9.67971 1.04635 9.91814 1.11013C10.6752 1.31347 11.3451 1.75585 11.8265 2.3704C12.3079 2.98495 12.5748 3.73833 12.5868 4.5167C12.5993 6.2641 12.5912 8.01168 12.5901 9.75909C12.5888 10.1072 12.5351 10.4529 12.4307 10.7853C12.2024 11.514 11.746 12.1516 11.1277 12.6052C10.5093 13.0588 9.7614 13.3047 8.99257 13.3074C7.26694 13.3074 5.54116 13.3074 3.81515 13.3074C3.70054 13.3074 3.58539 13.3021 3.47078 13.2934C3.06437 13.2616 2.66689 13.1584 2.29691 12.9885C1.58177 12.6673 0.992188 12.1225 0.618216 11.4375C0.392218 11.0312 0.250796 10.5841 0.20236 10.1225C0.193628 10.0445 0.187084 9.97186 0.179443 9.89711ZM6.38503 1.93453C5.53586 1.93453 4.68651 1.93453 3.83698 1.93453C3.72783 1.93453 3.61869 1.93878 3.50954 1.94907C3.13992 1.97864 2.78203 2.09203 2.46336 2.28021C2.05151 2.50646 1.70995 2.84034 1.4757 3.24559C1.24144 3.65083 1.12343 4.11178 1.13448 4.57886C1.12466 6.29053 1.13176 8.00247 1.13176 9.71414C1.13133 9.90908 1.15182 10.1034 1.19288 10.2942C1.31885 10.8757 1.64115 11.3971 2.10642 11.7721C2.57169 12.147 3.15201 12.3529 3.7513 12.3558C5.48893 12.3623 7.22601 12.3558 8.96364 12.3558C9.11994 12.3558 9.27597 12.3431 9.43025 12.3183C9.9135 12.2445 10.3648 12.033 10.7291 11.7094C11.0186 11.4626 11.2497 11.1555 11.4059 10.8099C11.5621 10.4643 11.6396 10.0889 11.6328 9.71013C11.6357 8.0003 11.6357 6.29021 11.6328 4.57965C11.6332 4.47307 11.6276 4.36636 11.6159 4.26041C11.5432 3.6248 11.2386 3.03757 10.7597 2.6095C10.2807 2.18143 9.66055 1.94208 9.01603 1.93665C8.14067 1.92906 7.26258 1.93717 6.38448 1.93717L6.38503 1.93453Z" fill="#867D77"/>
<path d="M6.38891 3.83154C7.04963 3.8324 7.69535 4.02778 8.2443 4.39278C8.79326 4.75778 9.22085 5.27619 9.47309 5.88236C9.72527 6.48854 9.79076 7.15517 9.66126 7.79829C9.53175 8.44141 9.21304 9.03188 8.74546 9.49522C8.27781 9.95861 7.6823 10.2741 7.03413 10.4016C6.38601 10.5292 5.71432 10.4631 5.104 10.2117C4.49369 9.9604 3.97215 9.53503 3.6053 8.98952C3.23845 8.44406 3.04276 7.80294 3.04297 7.14715C3.04542 6.26759 3.3989 5.42494 4.02601 4.80353C4.65311 4.18212 5.50274 3.83254 6.38891 3.83154ZM6.38891 4.77893C5.91668 4.77861 5.45498 4.91735 5.06221 5.17751C4.66943 5.43768 4.36322 5.80755 4.18232 6.24045C4.00142 6.67341 3.95394 7.15002 4.0459 7.60973C4.13787 8.06944 4.36514 8.49167 4.69896 8.82317C5.03279 9.15467 5.45815 9.38049 5.92132 9.47198C6.38443 9.56347 6.86446 9.51645 7.30072 9.33705C7.73699 9.15771 8.10989 8.85399 8.37217 8.46426C8.63445 8.07454 8.77443 7.61634 8.77432 7.14764C8.77509 6.83612 8.7138 6.52764 8.59396 6.23969C8.47411 5.95174 8.29806 5.68992 8.07594 5.46976C7.85383 5.24961 7.59002 5.07523 7.29974 4.95667C7.00946 4.83809 6.69845 4.77772 6.38454 4.77893H6.38891Z" fill="#867D77"/>
<path d="M9.96731 2.88428C10.1093 2.88472 10.2479 2.92696 10.3655 3.00568C10.4832 3.0844 10.5748 3.1961 10.6284 3.3265C10.6821 3.4569 10.6956 3.6003 10.6671 3.7383C10.6386 3.87631 10.5695 4.00275 10.4685 4.10171C10.3675 4.20067 10.2391 4.26752 10.0998 4.29399C9.96032 4.32046 9.81614 4.30532 9.68549 4.25035C9.55478 4.19538 9.44351 4.10317 9.36574 3.98534C9.28797 3.8675 9.2472 3.72947 9.24857 3.5886C9.25048 3.40083 9.3271 3.22144 9.46173 3.08952C9.59637 2.9576 9.77815 2.8837 9.96731 2.88428Z" fill="#867D77"/>
</g>
<defs>
<clipPath id="clip0_185_19770">
<rect width="13.0977" height="13" fill="white" transform="translate(0 0.5)"/>
</clipPath>
</defs>
</svg>
