<svg width="17" height="14" viewBox="0 0 17 14" fill="none" xmlns="http://www.w3.org/2000/svg">
<g clip-path="url(#clip0_185_19776)">
<path d="M5.43373 10.6111C5.22527 10.6082 5.01789 10.5808 4.81595 10.5294C4.49526 10.4483 4.18638 10.3268 3.89693 10.1675C3.29558 9.84611 2.76407 9.40996 2.33285 8.88427C2.10406 8.6136 1.92372 8.30588 1.79965 7.97471C1.7931 7.95629 1.78765 7.93744 1.78056 7.91469C2.24798 8.00688 2.73112 7.98289 3.18692 7.84487C2.47106 7.70664 1.82686 7.32319 1.36688 6.76154C0.897958 6.20156 0.648539 5.49235 0.664519 4.76439C1.11825 4.96142 1.60006 5.08731 2.09272 5.13757C1.99776 5.06445 1.90881 5.00062 1.82476 4.93075C1.23564 4.46296 0.839111 3.79752 0.70982 3.05977C0.594103 2.4565 0.676949 1.83221 0.946125 1.27925C0.99415 1.18175 1.05527 1.09071 1.11748 0.987793L1.24301 1.13405C1.82592 1.82764 2.48487 2.45469 3.20766 3.00344C4.09184 3.67781 5.09846 4.177 6.17263 4.47398C6.87696 4.66387 7.60339 4.76105 8.33321 4.7628C8.34794 4.7628 8.36273 4.76287 8.38238 4.75962C8.32431 4.50536 8.30483 4.24386 8.32453 3.98389C8.33817 3.33228 8.5712 2.70402 8.98646 2.19914C9.49159 1.55756 10.2297 1.13768 11.0428 1.02958C11.5031 0.960581 11.9728 0.987726 12.4219 1.10946C12.8709 1.23119 13.2893 1.44491 13.6504 1.73655C13.7448 1.80913 13.831 1.89243 13.9233 1.96718C13.9442 1.98274 13.9703 1.98996 13.9964 1.98728C14.6735 1.86185 15.3238 1.6218 15.919 1.27767L15.9588 1.25704C15.9654 1.25527 15.9722 1.25426 15.9791 1.25387C15.7054 1.95102 15.2101 2.54061 14.5683 2.93309C15.1872 2.86425 15.7921 2.70302 16.3627 2.45516C16.3147 2.51962 16.2671 2.58459 16.218 2.64797C15.8135 3.18856 15.325 3.66212 14.7708 4.05054C14.7588 4.05874 14.7493 4.06989 14.7433 4.08307C14.7373 4.09625 14.7352 4.11078 14.737 4.12512C14.7309 4.42412 14.7336 4.7211 14.7151 5.02173C14.6676 5.73144 14.5284 6.43193 14.3009 7.10642C13.8392 8.52905 13.0254 9.81432 11.934 10.8441C11.1363 11.5994 10.1988 12.194 9.1731 12.5953C8.56296 12.8348 7.92887 13.0092 7.28157 13.1158C6.55901 13.2309 5.82669 13.2748 5.09537 13.2464C4.65605 13.2323 4.21783 13.2062 3.78124 13.1526C2.89221 13.0577 2.02533 12.8165 1.21626 12.4387C1.03398 12.3504 0.857164 12.2507 0.677618 12.1559L0.682531 12.1409H0.739832C1.10056 12.1333 1.46239 12.1407 1.82258 12.1163C2.73424 12.0695 3.61943 11.7962 4.39683 11.3212C4.74119 11.1094 5.06808 10.8701 5.40262 10.6431C5.40535 10.6328 5.4119 10.6263 5.43373 10.6111Z" fill="#867D77"/>
</g>
<defs>
<clipPath id="clip0_185_19776">
<rect width="16.3721" height="13" fill="white" transform="translate(0.195312 0.5)"/>
</clipPath>
</defs>
</svg>
